<?xml version="1.0" encoding="UTF-8"?>
<svg width="269px" height="33px" viewBox="0 0 269 33" version="1.1" xmlns="http://www.w3.org/2000/svg" xmlns:xlink="http://www.w3.org/1999/xlink">
    <title>df-logo_v2</title>
    <g id="Page-1" stroke="none" stroke-width="1" fill="none" fill-rule="evenodd">
        <g id="df-logo_v2" fill="#130700" fill-rule="nonzero">
            <g id="futures" transform="translate(127.000000, 0.000000)">
                <polygon id="Path" points="0.972656 0.483158 17.4761 0.483158 17.4761 6.86837 7.38016 6.86837 7.38016 14.7699 14.7098 14.7699 14.7098 21.0485 7.38016 21.0485 7.38016 32.3855 0.972656 32.3855 0.972656 0.471313"></polygon>
                <path d="M38.3181,0.483154 L38.3181,26.0595 C38.3181,29.8385 36.5566,32.3974 33.1519,32.3974 L24.4509,32.3974 C21.4955,32.3974 19.332,30.4309 19.332,26.2609 L19.332,0.483154 L25.6922,0.483154 L25.6922,26.0122 L31.9579,26.0122 L31.9579,0.483154 L38.3181,0.483154 Z" id="Path"></path>
                <polygon id="Path" points="46.4042 6.86837 40.0439 6.86837 40.0439 0.483154 59.2073 0.483154 59.2073 6.86837 52.8471 6.86837 52.8471 32.3974 46.4042 32.3974"></polygon>
                <path d="M79.8601,0.483154 L79.8601,26.0595 C79.8601,29.8385 78.0986,32.3974 74.6939,32.3974 L65.9929,32.3974 C63.0374,32.3974 60.874,30.4309 60.874,26.2609 L60.874,0.483154 L67.2342,0.483154 L67.2342,26.0122 L73.4999,26.0122 L73.4999,0.483154 L79.8601,0.483154 Z" id="Path"></path>
                <path d="M82.6982,32.3974 L82.6982,0.483154 L97.4402,0.483154 C100.313,0.483154 101.412,2.29565 101.412,6.32343 L101.412,17.1274 C101.412,20.314 100.668,22.0318 98.8116,22.5293 L101.59,32.3974 L95.1941,32.3974 L92.7233,23.015 L89.1058,23.015 L89.1058,32.3974 L82.7101,32.3974 L82.6982,32.3974 Z M95.1468,16.7838 L95.1468,6.91575 L89.0939,6.91575 L89.0939,16.7838 L95.1468,16.7838 Z" id="Shape"></path>
                <polygon id="Path" points="104.013 0.483166 120.303 0.483166 120.303 6.71438 110.42 6.71438 110.42 13.3365 117.572 13.3365 117.572 19.5203 110.42 19.5203 110.42 26.1425 120.303 26.1425 120.303 32.3737 104.013 32.3737 104.013 0.459473"></polygon>
                <path d="M141.051,26.1069 C141.051,30.0399 139.325,32.3855 135.932,32.3855 L127.551,32.3855 C124.595,32.3855 122.432,30.3716 122.432,26.2017 L122.432,21.2973 L128.745,21.2973 L128.745,26.1543 L134.797,26.1543 L134.797,21.3921 L125.352,16.7246 C123.141,15.4925 122.443,14.3198 122.443,11.2278 L122.443,5.97989 C122.443,1.9995 124.3,0.483154 127.48,0.483154 L135.861,0.483154 C139.834,0.483154 141.075,2.6392 141.075,7.05791 L141.075,11.0857 L134.809,11.0857 L134.809,6.71436 L128.756,6.71436 L128.756,10.9317 L138.155,15.3978 C140.448,16.6298 141.063,17.8026 141.063,21.0485 L141.063,26.1069 L141.051,26.1069 Z" id="Path"></path>
            </g>
            <g id="digital">
                <path d="M0.5,0.495239 L14.84,0.495239 C18.5048,0.495239 19.5215,3.05406 19.5215,7.17661 L19.5215,26.1309 C19.5215,29.2702 18.1147,32.4094 14.3553,32.4094 L0.5,32.4094 L0.5,0.495239 Z M13.1259,26.0242 L13.1259,6.92784 L6.89568,6.92784 L6.89568,26.0242 L13.114,26.0242 L13.1259,26.0242 Z" id="Shape"></path>
                <polygon id="Path" points="22.4893 0.495239 28.8849 0.495239 28.8849 32.4094 22.4893 32.4094"></polygon>
                <path d="M44.3828,10.7068 L44.3828,6.88045 L38.2,6.88045 L38.2,26.0716 L44.4656,26.0716 L44.4656,19.639 L40.8954,19.639 L40.8954,14.1423 L50.7431,14.1423 L50.7431,26.119 C50.7431,29.3649 49.5017,32.3976 45.5769,32.3976 L37.1951,32.3976 C33.8377,32.3976 31.8516,30.3837 31.8516,26.2138 L31.8516,6.08674 C31.8516,2.01158 33.8377,0.495239 36.9232,0.495239 L45.7069,0.495239 C49.549,0.495239 50.7431,2.7579 50.7431,7.02261 L50.7431,10.7068 L44.3828,10.7068 Z" id="Path"></path>
                <polygon id="Path" points="53.6992 0.495239 60.0949 0.495239 60.0949 32.4094 53.6992 32.4094"></polygon>
                <polygon id="Path" points="68.3583 6.88045 61.998 6.88045 61.998 0.495239 81.1614 0.495239 81.1614 6.88045 74.8012 6.88045 74.8012 32.4094 68.3583 32.4094"></polygon>
                <path d="M93.3493,26.4626 L86.9536,26.4626 L86.1143,32.3976 L79.624,32.3976 L84.873,0.495239 L95.56,0.495239 L100.679,32.4094 L94.1887,32.4094 L93.3493,26.4744 L93.3493,26.4626 Z M87.8285,20.3735 L92.4627,20.3735 L90.4766,6.77383 L89.8146,6.77383 L87.8285,20.3735 Z" id="Shape"></path>
                <polygon id="Path" points="102.441 0.495239 108.836 0.495239 108.836 26.0242 118.897 26.0242 118.897 32.4094 102.429 32.4094 102.429 0.495239"></polygon>
            </g>
        </g>
    </g>
</svg>